# xmcd
# Copyright (c) 1998 CDDB Inc.
#
# Track frame offsets:
#	150
#	26002
#	53983
#	81643
#	100910
#	122066
#	134631
#	163431
#	181968
#	215870
#	234307
#	256503
#
# Disc length: 4110 seconds
#
# Revision: 0
# Processed by: cddbd v1.5.1PL2 Copyright (c) Steve Scherf et al.
# Submitted via: AudioCatalyst 2.10full
#
DISCID=b1100c0c
DTITLE=Alex Noir - ...Juste and bon
DYEAR=1900
DGENRE=
TTITLE0=Bienvenue
TTITLE1=Betterav' rock city
TTITLE2=Pas de sortie possible
TTITLE3=Funambules
TTITLE4=Le désir de vivre
TTITLE5=Ballade pour Tchatchy
TTITLE6=Lueur (Part 1)
TTITLE7=Lueur (Part 2)
TTITLE8=Cela est juste and bon
TTITLE9=La porte d'en arrière - Allons à Lafayette
TTITLE10=Quand je partirai
TTITLE11=Minuit
EXTD=
EXTT0=
EXTT1=
EXTT2=
EXTT3=
EXTT4=
EXTT5=
EXTT6=
EXTT7=
EXTT8=
EXTT9=
EXTT10=
EXTT11=
PLAYORDER=
